#!OML:ASF F:\VICON\USERDATA\INSTALL\rory3\rory3.ASF
:FULLY-SPECIFIED
:DEGREES
37
root -0.21600559751404136 18.061885520126125 8.238885666026277 -1.5591550030926171 -3.4225173940422158 -6.979355224434361
lfemur -30.14273499252012 4.309538967807757 -13.829402513270704
ltibia 45.6931583460173
lfoot -7.323259942801153 1.3136557864615455
ltoes -2.857100456857321
rfemur 3.328630006670128 6.505748710582056 34.46562072248591
rtibia 22.481021096754343
rfoot -17.959104584854778 -6.020929207732174
rtoes 7.957456892155681
lowerback 9.846081798720396 1.4956478386241074 6.76242964272641
upperback -0.39863722533458923 2.8502151434697787 1.9525882966705939
thorax -5.772257570439302 1.2326957385227888 -2.0895832557705916
lowerneck -16.51379847095543 -3.0746956420699854 -1.4114058987227232
upperneck 20.224827975635403 -4.205242865756793 1.1360296085661177
head 9.18260298030826 -1.9671568924532836 0.08053802313005254
lclavicle -4.550085012261229e-16 -7.777517950946524e-16
lhumerus -36.51608707608485 9.987760628032472 78.51523432381349
lradius 22.588994578918705
lwrist 5.857466308400142
lhand -28.50931197158777 19.035325979823
lfingers 7.12502
lthumb -2.0757823751935405 48.64631713208967
rclavicle -4.522007361097348e-16 -7.748650527742302e-16
rhumerus -21.320918511590286 -7.267273129540987 -83.3284283963443
rradius 30.43357160821296
rwrist -2.0187660645953214
rhand -18.460911984720404 23.697592103902966
rfingers 7.12502
rthumb 7.943759373440067 -6.0632422224001665
38
root -0.17961578878328355 18.041689103179504 8.949812578436784 -0.4593635318365763 -4.100202223345151 -7.2491258498224695
lfemur -30.197755846689617 2.7320565131337147 -13.112604804200494
ltibia 35.25062225991832
lfoot -5.774085794630958 3.224841446439118
ltoes -4.344465047133246
rfemur 5.90686053486785 6.498440645270017 34.559509221320354
rtibia 20.45186914988988
rfoot -18.301905634377434 -5.840429177199985
rtoes 6.932522422048743
lowerback 9.197649559788058 1.8336965521197386 7.144076894741487
upperback -0.46218463782146535 3.244428590152909 1.9156718757620674
thorax -5.448467463748929 1.4064607360049624 -2.365717964588592
lowerneck -16.71781009076424 -3.0864578100163444 -1.3323998703776712
upperneck 20.192659841988284 -4.211909844670547 1.2120822812953516
head 9.196099708080201 -1.970312353182477 0.09404648229494214
lclavicle -4.538265378228183e-16 -7.76837913513145e-16
lhumerus -37.38719267240842 11.5636144798058 77.90024760915603
lradius 21.10460029814656
lwrist 4.825540457977714
lhand -28.271268261666744 20.11871871361367
lfingers 7.12502
lthumb -1.6859022666926702 49.90231688137575
rclavicle -4.531624507051435e-16 -7.755490416861014e-16
rhumerus -19.90698603249069 -6.195018838687801 -83.59899667666387
rradius 31.720899507655844
rwrist -2.848259762293809
rhand -18.289214469796367 23.85974805453371
rfingers 7.12502
rthumb 8.17960529158866 -5.8773024044935624
39
root -0.13232872989588107 17.967821665523516 9.439081196393042 0.009291451774236847 -4.772038104372457 -7.390579070535265
lfemur -29.394457596209122 -0.804070427617306 -11.860825740880056
ltibia 24.69462941371831
lfoot -5.775177374568321 4.870653705069475
ltoes -6.126132543361031
rfemur 8.11718231362217 6.394316995755945 34.30975737789902
rtibia 19.763224126287177
rfoot -18.707131510535547 -5.363441418051216
rtoes 4.74838220898968
lowerback 9.282734790569327 2.163141700351568 7.463041160437576
upperback -0.46695414979065364 3.713538013217394 1.8352903132989404
thorax -5.387065332712135 1.6286285222740062 -2.5825532970427965
lowerneck -16.810560203025535 -3.085560758521993 -1.2892278188618453
upperneck 20.140173846700765 -4.219680982429764 1.279253268111624
head 9.18330665369601 -1.9670275933944368 0.1043274565274481
lclavicle -4.520080698969882e-16 -7.754325772123123e-16
lhumerus -38.170579061173335 13.067330653417343 77.16573332233747
lradius 19.766408547735672
lwrist 2.6645132076486195
lhand -27.544160016934864 22.58016908925417
lfingers 7.12502
lthumb -0.9821398869903282 52.22636818025489
rclavicle -4.532231994666926e-16 -7.754597400596089e-16
rhumerus -18.750712957560978 -6.071394422365557 -83.68627993450401
rradius 32.283321761638945
rwrist -3.293862076799517
rhand -18.366967437212352 24.318757893742106
rfingers 7.12502
rthumb 8.081768850396152 -5.507765441026054
40
root -0.07550904197557545 17.879223534392214 9.722173783552108 0.12930543557879393 -5.076581064530949 -7.430577336753558
lfemur -28.086292004885024 -5.014543237659962 -10.59089539370537
ltibia 16.290412694262955
lfoot -7.492069018132645 6.301885459421338
ltoes -5.426312463505781
rfemur 10.003343376584542 6.308365215124759 33.83125622394449
rtibia 20.9313033699126
rfoot -18.627652162488346 -4.668098664853886
rtoes 1.3575105977676731
lowerback 9.434721850626449 2.3439175600030695 7.572084640963014
upperback -0.41400405714446176 3.8783716294343753 1.712651818546412
thorax -5.3334120776573215 1.7182755367074596 -2.7037756404531583
lowerneck -16.889802940038187 -3.10440461166844 -1.279580962701401
upperneck 20.173313824914523 -4.263307717466846 1.484785922995599
head 9.199771784516408 -1.9788559634429963 0.17100607826625674
lclavicle -4.521612614291391e-16 -7.755511189755349e-16
lhumerus -38.941028071967764 14.155182810184623 76.49798566311298
lradius 18.535289608430542
lwrist 1.1768617440529319
lhand -28.212152786396103 21.426912960813954
lfingers 7.12502
lthumb -1.3996900487183048 51.0836824199837
rclavicle -4.554433542699877e-16 -7.769815852394522e-16
rhumerus -18.090111467705967 -6.578041979235623 -83.69708365169082
rradius 32.62130284723469
rwrist -3.1220237775380246
rhand -18.62491298314705 24.01581831400556
rfingers 7.12502
rthumb 7.810220862442481 -5.677341252301915
